<?xml version="1.0" encoding="utf-8"?>
<!-- Generator: Adobe Illustrator 25.0.1, SVG Export Plug-In . SVG Version: 6.00 Build 0)  -->
<svg version="1.1" id="Layer_1" xmlns="http://www.w3.org/2000/svg" xmlns:xlink="http://www.w3.org/1999/xlink" x="0px" y="0px"
	 viewBox="0 0 250 26" style="enable-background:new 0 0 250 26;" xml:space="preserve">
<style type="text/css">
	.st0{fill:#0B94CF;}
</style>
<g>
	<path class="st0" d="M0,12.4c0,6.9,5.2,12,12.2,12H19v-3.7h-6.9c-3.1,0-8-2.3-8-8.3c0-4.8,3.9-8.3,9.2-8.3h5.7V0.4h-6
		C5,0.4,0,6.6,0,12.4z"/>
	<path class="st0" d="M45.5,0c-6.1,0-10.3,3.8-10.3,9.3v15.2H40V9.1c0-3.3,2.1-5.4,5.5-5.4c3.4,0,5.5,2.1,5.5,5.4v1.1H40.7v3.7H51
		v10.6h4.8V9.3C55.8,3.8,51.6,0,45.5,0z"/>
	<path class="st0" d="M122.1,0c-6.1,0-10.3,3.8-10.3,9.3v15.2h4.8V9.1c0-3.3,2.1-5.4,5.5-5.4c3.4,0,5.5,2.1,5.5,5.4v1.1h-10.4v3.7
		h10.4v10.6h4.8V9.3C132.4,3.8,128.1,0,122.1,0z"/>
	<path class="st0" d="M83.9,0c-6.1,0-10.3,3.8-10.3,9.3v15.2h4.8V9.1c0-3.3,2.1-5.4,5.5-5.4c3.4,0,5.5,2.1,5.5,5.4v1.1h0v3.7h0v10.6
		h4.8V9.3C94.2,3.8,90,0,83.9,0z"/>
	<path class="st0" d="M160,10.5c-3.1-1.1-5.7-2.1-5.7-3.8c0-1.5,1.1-2.4,3.1-2.4h10.4V0.7h-9.9c-5.2,0-8.6,2.5-8.6,6.2
		c0,4,4.6,5.8,8.7,7.3c3.3,1.2,6.1,2.3,6.1,4.2c0,1.3-0.5,2.6-4.4,2.6h-10.6v3.7h11.3c5.3,0,8.6-2.5,8.6-6.6
		C169.1,13.9,164.2,12.1,160,10.5z"/>
</g>
<g>
	<path class="st0" d="M186.9,14.2h-3c-3.2,0-5.5,2-5.5,4.7c0,3.2,2.7,4.7,4.8,4.7h3.7v1.6h-3.7c-3.8,0-6.7-2.7-6.7-6.2
		c0-3,2.7-6.2,7.2-6.2h3.2V14.2z"/>
	<path class="st0" d="M203.2,11.7c4.3,0,8,3.2,8,7.2s-3.7,7.2-8,7.2c-4.3,0-8-3.2-8-7.2S198.9,11.7,203.2,11.7z M203.2,24.2
		c3.4,0,5.9-2.5,5.9-5.4c0-2.9-2.5-5.4-5.9-5.4c-3.4,0-5.9,2.5-5.9,5.4C197.4,21.8,199.8,24.2,203.2,24.2z"/>
	<path class="st0" d="M220.5,25.6v-9c0-3,2.1-4.8,5.3-4.8c2.9,0,4.9,1.8,4.9,3.9c0,1.3-0.5,2.3-1.8,3c1.4,0.5,2.1,1.2,2.1,3.1v3.8
		h-2.1v-3.7c0-1.3-0.9-2.2-2.9-2.2h-2.4V18h1.7c1.9,0,3.3-0.7,3.3-2.2c0-1.3-1.3-2.2-2.8-2.2c-1.8,0-3.1,1-3.1,2.6v9.5H220.5z"/>
	<path class="st0" d="M240.9,25.1v-8.5c0-2.7,2.1-4.4,4.5-4.4c2.9,0,4.6,1.9,4.6,4.1c0,2.2-1.7,4-4,4h-2.5v-1.6h2
		c1.5,0,2.6-0.9,2.6-2.4c0-1.5-1.2-2.5-2.7-2.5c-1.5,0-2.6,1-2.6,2.6v8.7H240.9z"/>
</g>
</svg>
