<?xml version="1.0" encoding="utf-8"?>
<!-- Generator: Adobe Illustrator 25.0.1, SVG Export Plug-In . SVG Version: 6.00 Build 0)  -->
<svg version="1.1" id="Layer_1" xmlns="http://www.w3.org/2000/svg" xmlns:xlink="http://www.w3.org/1999/xlink" x="0px" y="0px"
	 viewBox="0 0 681.3 80" style="enable-background:new 0 0 681.3 80;" xml:space="preserve">
<style type="text/css">
	.st0{fill:#0B94CF;}
	.st1{fill:#1D1D1E;}
	.st2{fill:#E31D38;}
</style>
<g>
	<path class="st0" d="M157.6,45.3c0,14.4,10.9,25.2,25.5,25.2h14.4v-7.8h-14.4c-6.5,0-16.7-4.7-16.7-17.4c0-10.1,8.1-17.4,19.3-17.4
		h11.9v-7.8h-12.7C168,20.1,157.6,33.1,157.6,45.3z"/>
	<path class="st0" d="M253,19.2c-12.7,0-21.6,8-21.6,19.5v31.8h10.1V38.3c0-7,4.4-11.3,11.5-11.3c7.1,0,11.5,4.3,11.5,11.3v2.2
		h-21.7v7.8h21.7v22.1h10.1V38.7C274.6,27.2,265.7,19.2,253,19.2z"/>
	<path class="st0" d="M413.3,19.2c-12.7,0-21.6,8-21.6,19.5v31.8h10.1V38.3c0-7,4.4-11.3,11.5-11.3c7.1,0,11.5,4.3,11.5,11.3v2.2
		h-21.7v7.8h21.7v22.1h10.1V38.7C434.9,27.2,426,19.2,413.3,19.2z"/>
	<path class="st0" d="M333.3,19.2c-12.7,0-21.6,8-21.6,19.5v31.8h10.1V38.3c0-7,4.4-11.3,11.5-11.3c7.1,0,11.5,4.3,11.5,11.3v2.2h0
		v7.8h0v22.1h10.1V38.7C354.9,27.2,346.1,19.2,333.3,19.2z"/>
	<path class="st0" d="M492.7,41.2c-6.5-2.4-12-4.5-12-7.9c0-3.2,2.3-5,6.5-5H509v-7.8h-20.7c-10.9,0-17.9,5.1-17.9,13.1
		c0,8.5,9.7,12.1,18.3,15.3c6.8,2.6,12.8,4.8,12.8,8.8c0,2.7-1.1,5.5-9.3,5.5H470V71h23.7c11.2,0,18.1-5.3,18.1-13.9
		C511.7,48.3,501.7,44.5,492.7,41.2z"/>
</g>
<g>
	<path class="st0" d="M549.1,48.9h-6.3c-6.6,0-11.5,4.2-11.5,9.8c0,6.8,5.7,9.8,10,9.8h7.8v3.3h-7.8c-8,0-14-5.6-14-13
		c0-6.3,5.7-13,15.1-13h6.7V48.9z"/>
	<path class="st0" d="M583.3,43.6c9.1,0,16.8,6.6,16.8,15s-7.7,15-16.8,15c-9.1,0-16.8-6.6-16.8-15S574.2,43.6,583.3,43.6z
		 M583.3,70c7.1,0,12.3-5.2,12.3-11.4c0-6.2-5.2-11.4-12.3-11.4S571,52.5,571,58.7C571,64.8,576.2,70,583.3,70z"/>
	<path class="st0" d="M619.5,72.9V54.1c0-6.4,4.5-10.2,11-10.2c6.1,0,10.3,3.7,10.3,8.1c0,2.7-1.1,4.9-3.9,6.3
		c2.9,1,4.4,2.4,4.4,6.6v7.9h-4.5v-7.8c0-2.8-1.9-4.6-6-4.6H626v-3.6h3.5c3.9,0,6.9-1.5,6.9-4.7c0-2.8-2.8-4.6-5.8-4.6
		c-3.9,0-6.6,2.2-6.6,5.5v19.9H619.5z"/>
	<path class="st0" d="M662.2,71.7V53.9c0-5.7,4.4-9.3,9.4-9.3c6,0,9.7,4,9.7,8.5c0,4.7-3.6,8.5-8.3,8.5h-5.3v-3.3h4.2
		c3.1,0,5.5-1.9,5.5-5.1c0-3.2-2.5-5.2-5.7-5.2c-3.2,0-5.5,2.1-5.5,5.5v18.2H662.2z"/>
</g>
<path class="st1" d="M75.6,37.9c0,0,0.5,4.5-1.1,7.9c-1.9,4-6.4,5.5-12.8,7.5c-5.2,1.7-9.3,2.1-13,2.4c-5.5,0.5-8.4,0.7-11.5-0.4
	c-1.3-0.5-6.2-2.3-8.5-7.2c-1.5-3.2-1.2-6.2-1-7.5c0.3-3.1,1.5-5.3,2.2-6.5c1.7-2.9,3.7-4.7,5.5-6.3c1.2-1,3-2.6,5.8-3.9
	c2-1,4.1-1.6,8.4-2.7c3-0.8,12.6-2.3,14.1-2.4c3.8-0.4,28-10.3,28-10.3c-3.2-2.4-7.6-3.2-16.5-3.3c-7.2-0.1-19.2,0.4-31.7,4.3
	c-10.4,3.2-17.7,7.1-22.5,10.1C13,25,9.5,28.9,8.4,30.3C5.6,33.5,2.2,37.7,1,44.1C0.5,46.5-0.5,51.7,2,57c0.9,2,2.8,4.9,7.5,7.9
	c8.9,5.8,19.4,6.2,26.7,6.1c11-0.2,32.6-0.7,52.2-14.5c1.5-1.1,10.8-7.8,14.8-18.7c1.8-5.1,0.4-6.7,0.4-6.7S75.7,38.3,75.6,37.9
	L75.6,37.9z"/>
<path class="st2" d="M75.2,33.2c0,0,0.5,4.5-1.1,7.9c-1.9,4-6.4,5.5-12.8,7.5c-5.2,1.7-9.3,2.1-13,2.4c-5.5,0.5-8.4,0.7-11.5-0.4
	c-1.3-0.5-6.2-2.3-8.5-7.2c-1.5-3.2-1.2-6.2-1-7.5c0.3-3.1,1.5-5.3,2.2-6.5c1.7-2.9,3.7-4.7,5.5-6.3c1.2-1,3-2.6,5.8-3.9
	c2-1,4.1-1.6,8.4-2.7c3-0.8,16.1-1.7,17.5-1.9c3.8-0.4,26.3-10,26.3-10c-3.2-2.4-9.4-4-18.2-4.1c-7.2-0.1-19.2,0.4-31.7,4.3
	C32.9,8,25.5,11.8,20.8,14.9C12.6,20.2,9.1,24.2,8,25.5C5.3,28.8,1.9,33,0.6,39.4c-0.5,2.4-1.5,7.6,1,12.9c0.9,2,2.8,4.9,7.5,7.9
	c8.9,5.8,19.4,6.2,26.7,6.1c11-0.2,32.6-0.7,52.2-14.5c1.5-1.1,10.8-7.8,14.8-18.7c1.8-5.1,0.4-6.7,0.4-6.7S75.3,33.6,75.2,33.2
	L75.2,33.2z"/>
<path class="st1" d="M70.4,80c18.2-6.3,33.5-12.5,45.5-17.8c6.2-2.7,15.4-6.9,22.1-16.2c4.2-5.8,5.2-10.8,5.5-12.6
	c0.4-2.5,1.6-9.2-1.9-16c-4.1-7.8-11.7-10.6-14.2-11.6c-8.4-3.1-16-1.4-23.8,0.3c-4.7,1-8.6,2.4-14.9,4.6c-5.7,2-9.7,3.8-12.1,4.7
	C67.7,19,58.8,22.4,50,25.8l4.1,13.3c8.3-2.8,10.5-4,14.1-5.5c1.8-0.7,6.2-2.9,10.3-4.8c1.2-0.6,0-3,2.7-4
	c11.6-4.4,14.8-5.4,17.3-5.7c4.4-0.5,7.3-0.3,11,2.3c3.4,2.4,7,5.7,8.9,11.4c1.8,5.6-0.6,9.4-1.9,11.2c-2.7,3.7-11.5,9.9-22.8,14.2
	c-6.2,2.3-15.6,6.4-27.4,11.4L70.4,80z"/>
<path class="st0" d="M68.9,75.9c18.2-6.3,33.5-12.5,45.5-17.8c6.2-2.7,15.4-6.9,22.1-16.2c4.2-5.8,5.2-10.8,5.5-12.6
	c0.4-2.5,1.6-9.2-1.9-16C136,5.5,128.4,2.6,125.9,1.7c-8.4-3.1-16-1.4-23.8,0.3c-4.7,1-8.6,2.4-14.9,4.6c-5.7,2-9.7,3.8-12.1,4.7
	c-8.9,3.5-17.7,6.9-26.5,10.3l4.5,14.1c13.9-5.5,2.7-1.1,14.4-5.7c2.3-0.9,8.2-3.8,9.3-4.4c0.5-0.3,0-2.1,1.6-2.8
	c6-2.5,14.1-5.4,15.9-5.8c3.2-0.7,9.3-1.8,14.7,1c3.1,1.6,6.1,4.8,8,10.6c1.8,5.6-0.6,9.4-1.9,11.2c-2.7,3.7-11.5,9.9-22.8,14.2
	c-6.2,2.3-15.6,6.4-27.4,11.4L68.9,75.9z"/>
</svg>
