<?xml version="1.0" encoding="utf-8"?>
<!-- Generator: Adobe Illustrator 25.0.1, SVG Export Plug-In . SVG Version: 6.00 Build 0)  -->
<svg version="1.1" id="Layer_1" xmlns="http://www.w3.org/2000/svg" xmlns:xlink="http://www.w3.org/1999/xlink" x="0px" y="0px"
	 viewBox="0 0 395.7 50" style="enable-background:new 0 0 395.7 50;" xml:space="preserve">
<style type="text/css">
	.st0{fill-rule:evenodd;clip-rule:evenodd;fill:#0B94CF;}
	.st1{fill:#0B94CF;}
	.st2{fill-rule:evenodd;clip-rule:evenodd;fill:url(#SVGID_1_);}
</style>
<path class="st0" d="M234.9,50V33H219v-4.7h15.9v-1.5c0-3.3-0.7-5.7-2.2-7.4s-3.7-2.5-6.5-2.5c-2.9,0-5,0.8-6.5,2.5
	s-2.2,4.1-2.2,7.4V50h-5.4V26.7c0-4.4,1.3-7.9,3.8-10.5s6-3.9,10.3-3.9s7.7,1.3,10.3,3.9c2.5,2.6,3.9,6.1,3.9,10.5V50H234.9z"/>
<path class="st0" d="M149,50V33h-15.9v-4.7H149v-1.5c0-3.3-0.7-5.7-2.2-7.4c-1.5-1.7-3.7-2.5-6.5-2.5c-2.9,0-5,0.8-6.5,2.5
	s-2.2,4.1-2.2,7.4V50h-5.4V26.7c0-4.4,1.3-7.9,3.8-10.5c2.5-2.6,6-3.9,10.3-3.9s7.7,1.3,10.3,3.9c2.5,2.6,3.9,6.1,3.9,10.5V50H149z"
	/>
<path class="st0" d="M255,50v-5h14c2.2,0,3.9-0.4,5.1-1.2s1.7-1.9,1.7-3.5c0-1.2-0.4-2.2-1.3-3.1c-0.8-0.8-2.5-1.9-5-3l-6.9-3.2
	c-2.5-1.2-4.3-2.5-5.6-4c-1.2-1.5-1.8-3.2-1.8-5.2c0-2.8,1.1-5,3.4-6.6c2.2-1.6,5.3-2.4,9.1-2.4h11.8v4.9H266
	c-1.6,0-2.8,0.3-3.7,1.1c-1,0.7-1.4,1.7-1.4,2.9c0,1.1,0.4,2,1.2,2.8c0.8,0.7,2.8,1.9,5.8,3.3l5.9,2.8c2.6,1.2,4.6,2.5,5.8,4.1
	s1.9,3.4,1.9,5.4c0,3.2-1.2,5.5-3.5,7.3c-2.3,1.7-5.7,2.5-10,2.5L255,50L255,50z"/>
<path class="st0" d="M111.6,17.2c-0.2,0-0.5,0-0.7,0s-0.6,0-1.2,0c-5.5,0-9.9,1.3-13.1,3.8s-4.8,6-4.8,10.4s1.6,7.8,4.8,10.4
	c3.2,2.5,7.5,3.8,13.1,3.8c0.5,0,1,0,1.2,0c0.3,0,0.5,0,0.7,0V50H110c-3.1,0-5.7-0.2-7.9-0.6c-2.3-0.4-4.2-1.1-5.8-1.9
	c-3.3-1.8-5.7-4-7.5-6.8c-1.7-2.8-2.5-5.7-2.5-9.2c0-3.4,0.8-6.5,2.5-9.1c1.7-2.8,4.2-5,7.5-6.8c1.6-0.8,3.5-1.5,5.8-1.9
	s5-0.6,7.9-0.6h1.6V17.2z"/>
<path class="st0" d="M174.7,50V26.9c0-3.2,0.7-5.7,2.2-7.4s3.7-2.5,6.5-2.5c2.9,0,5,0.8,6.5,2.5s2.2,4.1,2.2,7.4V50h5.4V26.7
	c0-4.3-1.3-7.8-3.9-10.5c-2.5-2.6-6-3.9-10.3-3.9c-4.3,0-7.7,1.3-10.3,3.9c-2.5,2.6-3.8,6.1-3.8,10.5V50C169.2,50,174.7,50,174.7,50
	z"/>
<path class="st1" d="M310,31.5h-5.1c-5.4,0-9.3,3.4-9.3,7.9c0,4.3,3.5,7.9,7.8,7.9c0.1,0,0.1,0,0.2,0h6.4V50h-6.4
	c-6.6,0-11.4-4.6-11.4-10.6c0-5.1,4.7-10.6,12.3-10.6h5.4L310,31.5z"/>
<path class="st1" d="M332.2,28.8c6.4,0,11.9,4.7,11.9,10.6S338.7,50,332.2,50s-11.9-4.7-11.9-10.6S325.8,28.8,332.2,28.8z
	 M332.2,47.4c5.1,0,8.7-3.7,8.7-8s-3.7-8-8.7-8s-8.7,3.7-8.7,8S327.2,47.4,332.2,47.4L332.2,47.4z"/>
<path class="st1" d="M354.5,50V36.3c0-4.7,3.2-7.4,8.1-7.4c4.5,0,7.5,2.7,7.5,5.9c0.1,2-1,3.8-2.8,4.6c2.1,0.7,3.2,1.8,3.2,4.9V50
	h-3.4v-5.7c0-2-1.4-3.3-4.4-3.3h-3.6v-2.6h2.6c2.9,0,5.1-1.1,5.1-3.4c0-2.1-2-3.4-4.2-3.4c-2.9,0-4.9,1.6-4.9,4V50H354.5z"/>
<path class="st1" d="M380.8,49.9V36.1c-0.1-3.9,3.1-7.1,6.9-7.2c0.1,0,0.3,0,0.4,0c4.7,0,7.6,3.2,7.6,6.7c0.1,3.6-2.8,6.5-6.3,6.6
	c-0.1,0-0.1,0-0.2,0H385v-2.5h3.3c2.1,0.2,4.1-1.3,4.3-3.5c0-0.2,0-0.4,0-0.5c-0.2-2.4-2.3-4.2-4.8-4c-2.1,0.2-3.9,1.9-4,4.2V50
	L380.8,49.9z"/>
<path class="st0" d="M60.4,21c-6.1,0.7-12.5,0.2-19.1-0.4l-2.5-3.9c3.4-2.6,8.1-5,12.3-4.6c3.1,0.3,5.6,2,7.6,5
	C59.5,18.5,60.1,19.7,60.4,21 M31.7,8.3c-2.4,1.5-4.9,3.2-7.3,4.8c-3.7,2.5-6.1,5-7.2,7.8c3.4-0.7,7.2-1,11.4-1L24.8,14
	C35.3,7.2,47.1-2.7,60.1,4.3c3,1.6,5.5,4,7.5,7c1.4,2.2,2.4,4.5,2.9,6.9c2.6-1.2,5.2-2.8,7.7-5c-11.7,15-24.4,14.1-41.4,12
	c-11.7-1.5-24.4-4-36.8,8.3c1.8-3.2,3.8-5.6,6.2-7.5c-0.2-3.3,0.5-6.6,1.9-9.8c0.9-2,2.4-4,4.4-6C16.3,6.4,21.8,3.1,26.3,0L31.7,8.3
	z"/>
<linearGradient id="SVGID_1_" gradientUnits="userSpaceOnUse" x1="39.35" y1="1530.5967" x2="39.35" y2="1497.0881" gradientTransform="matrix(1 0 0 1 0 -1481.2)">
	<stop  offset="0" style="stop-color:#FDFDFD"/>
	<stop  offset="0.1983" style="stop-color:#CDCED0"/>
	<stop  offset="0.3463" style="stop-color:#A7A9AC"/>
	<stop  offset="0.5195" style="stop-color:#D0D2D3"/>
	<stop  offset="0.7212" style="stop-color:#FDFDFD"/>
	<stop  offset="0.7798" style="stop-color:#F5F5F5"/>
	<stop  offset="0.8711" style="stop-color:#DFDFDF"/>
	<stop  offset="0.9831" style="stop-color:#BBBBBB"/>
	<stop  offset="1" style="stop-color:#B5B5B5"/>
</linearGradient>
<path class="st2" d="M77.4,15.9C65.7,30.1,50.9,28.2,38.7,26.7C22.3,24.7,10.8,24,1.3,34c1.8-1.3,3.8-2.3,5.8-3
	c0.6,1.7,1.4,3.4,2.4,5.1c2,3,4.5,5.4,7.5,7c3.1,1.6,6.4,2.4,10.1,2.4c2.2,0,4.6-0.5,7.3-1.5c2-0.8,4.2-1.8,6.5-3.2l-5.3-8.2
	c-3.5,2.1-6.6,2.9-9.4,2.7c-3.1-0.3-5.6-2-7.6-5c-0.3-0.5-0.6-1-0.8-1.4c6.3-0.4,12.4,0.3,17.1,0.9l1.6,2.4l0,0L39,36l2.9,4.4
	l0.3,0.4l0,0l5.6,8.7c2.8-1.8,5.8-3.6,8.7-5.5l-5.4-8.3l0,0l-3.6-5.3c4,0,7.6-0.3,10.9-1c-1.7,2.3-4.2,4-6.7,5.6l5.4,8.3
	c7-4.8,13.2-10.4,13.8-19.2C73.7,22,75.9,19.3,77.4,15.9"/>
</svg>
