<svg xmlns="http://www.w3.org/2000/svg" viewBox="0 0 87.21 48.46"><defs><style>.cls-1{fill:#1d1d1e;}.cls-2{fill:#e51937;}.cls-3{fill:#0093d0;}</style></defs><g id="Layer_2" data-name="Layer 2"><g id="Layer_1-2" data-name="Layer 1"><path class="cls-1" d="M45.79,23a10,10,0,0,1-.66,4.78c-1.15,2.41-3.89,3.31-7.73,4.56a32.89,32.89,0,0,1-7.88,1.47c-3.35.31-5.06.44-6.95-.25a8.88,8.88,0,0,1-5.16-4.38,8.35,8.35,0,0,1-.62-4.53,9.8,9.8,0,0,1,1.36-3.94A13.51,13.51,0,0,1,21.5,16.9,16.49,16.49,0,0,1,25,14.51a27.26,27.26,0,0,1,5.11-1.66c1.84-.5,7.63-1.38,8.53-1.48,2.33-.25,17-6.21,17-6.21-1.92-1.46-4.62-1.92-10-2a62.29,62.29,0,0,0-19.24,2.6,55.21,55.21,0,0,0-13.6,6.14,33.84,33.84,0,0,0-7.73,6.44,18.1,18.1,0,0,0-4.49,8.4,12.13,12.13,0,0,0,.63,7.8,11.63,11.63,0,0,0,4.52,4.79C11.16,42.81,17.48,43.09,21.9,43c6.66-.14,19.74-.41,31.62-8.76.94-.66,6.55-4.7,8.95-11.3,1.11-3.06.26-4.09.26-4.09S45.84,23.19,45.79,23Z"/><path class="cls-2" d="M45.57,20.11a10.05,10.05,0,0,1-.66,4.79c-1.15,2.41-3.89,3.31-7.73,4.56a32.89,32.89,0,0,1-7.88,1.47c-3.35.31-5.06.44-6.95-.25a8.86,8.86,0,0,1-5.16-4.39,8.31,8.31,0,0,1-.62-4.52,9.8,9.8,0,0,1,1.36-3.94A13.37,13.37,0,0,1,21.28,14,20.52,20.52,0,0,1,25,11.85,21.76,21.76,0,0,1,29.89,10c1.84-.5,9.73-1,10.63-1.13,2.33-.26,16-6.06,16-6.06C54.56,1.34,50.78.38,45.42.29A62.17,62.17,0,0,0,26.19,2.88,55.54,55.54,0,0,0,12.59,9a33.33,33.33,0,0,0-7.73,6.44,18.1,18.1,0,0,0-4.49,8.4A12.06,12.06,0,0,0,1,31.67a11.55,11.55,0,0,0,4.52,4.78c5.42,3.5,11.74,3.78,16.16,3.69,6.65-.14,19.74-.42,31.62-8.77a25.45,25.45,0,0,0,9-11.3C63.36,17,62.5,16,62.5,16S45.62,20.32,45.57,20.1Z"/><path class="cls-1" d="M42.63,48.46c11-3.83,20.27-7.59,27.55-10.79,3.74-1.65,9.35-4.19,13.36-9.83a18.5,18.5,0,0,0,3.34-7.62,14.9,14.9,0,0,0-1.16-9.66c-2.46-4.75-7.09-6.45-8.61-7-5.07-1.87-9.69-.87-14.44.16a70.87,70.87,0,0,0-9,2.82c-3.44,1.23-5.87,2.3-7.32,2.87q-8,3.15-16.06,6.24l2.47,8c5.05-1.71,6.35-2.44,8.53-3.32,1.06-.43,3.76-1.75,6.25-2.91.75-.35,0-1.79,1.66-2.43,7-2.66,9-3.25,10.49-3.43,2.68-.33,4.42-.2,6.68,1.38a13.09,13.09,0,0,1,5.38,6.92A7.18,7.18,0,0,1,70.6,26.7c-1.62,2.23-6.94,6-13.82,8.59-3.76,1.42-9.46,3.9-16.61,6.93Z"/><path class="cls-3" d="M41.76,46c11-3.83,20.28-7.6,27.55-10.79,3.74-1.65,9.35-4.19,13.37-9.83A18.85,18.85,0,0,0,86,17.72a15,15,0,0,0-1.16-9.66C82.4,3.31,77.77,1.6,76.24,1c-5.06-1.86-9.69-.86-14.43.17a67.76,67.76,0,0,0-9,2.82c-3.44,1.22-5.87,2.3-7.32,2.87q-8.06,3.15-16.07,6.24l2.75,8.55c8.41-3.35,1.65-.66,8.73-3.45,1.38-.54,5-2.32,5.62-2.63.33-.17,0-1.27,1-1.7a98.37,98.37,0,0,1,9.65-3.54c1.93-.43,5.64-1.09,8.91.61,1.87,1,3.71,2.92,4.83,6.41a7.2,7.2,0,0,1-1.15,6.81c-1.62,2.22-6.94,6-13.82,8.59-3.77,1.42-9.46,3.9-16.61,6.93Z"/></g></g></svg>